<svg width="694" height="342" viewBox="0 0 694 342" fill="none" xmlns="http://www.w3.org/2000/svg">
<rect width="693.662" height="341.341" fill="#F5F6FF"/>
<rect x="40.5" y="30.5" width="365" height="280.341" rx="7.5" fill="white"/>
<path d="M80.5661 70V83.0909H78.7507L72.0966 73.4901H71.9751V83.0909H70V70H71.8281L78.4886 79.6136H78.6101V70H80.5661Z" fill="#3B57FF"/>
<path d="M87.5254 83.2891C84.6298 83.2891 82.8528 81.2947 82.8528 78.2457C82.8528 75.2287 84.6554 73.1449 87.3912 73.1449C89.6156 73.1449 91.7377 74.532 91.7377 78.0795V78.7571H84.7576C84.8088 80.6491 85.9082 81.7102 87.5446 81.7102C88.6312 81.7102 89.4622 81.2372 89.8074 80.3104L91.6163 80.6364C91.1816 82.2344 89.6667 83.2891 87.5254 83.2891ZM84.764 77.3253H89.8649C89.8585 75.8232 88.8869 74.7237 87.4039 74.7237C85.8507 74.7237 84.8407 75.9318 84.764 77.3253Z" fill="#3B57FF"/>
<path d="M101.216 75.6697L99.4833 75.9766C99.2596 75.3182 98.7099 74.6598 97.521 74.6598C96.4343 74.6598 95.6161 75.1967 95.6225 75.951C95.6161 76.6158 96.0827 76.9801 97.163 77.2358L98.7227 77.5938C100.525 78.0092 101.407 78.8658 101.407 80.2528C101.407 82.0298 99.7646 83.2891 97.3931 83.2891C95.1879 83.2891 93.7433 82.3111 93.4237 80.5724L95.271 80.2912C95.5011 81.2564 96.2362 81.7486 97.3803 81.7486C98.6332 81.7486 99.445 81.1541 99.445 80.3935C99.445 79.7798 99.0039 79.358 98.0579 79.147L96.396 78.7827C94.555 78.3736 93.7113 77.4467 93.7113 76.0533C93.7113 74.3146 95.2837 73.1449 97.5018 73.1449C99.6239 73.1449 100.819 74.142 101.216 75.6697Z" fill="#3B57FF"/>
<path d="M108.092 73.2727V74.8068H106.078V80.2081C106.078 81.3139 106.634 81.5185 107.254 81.5185C107.561 81.5185 107.798 81.4609 107.926 81.4354L108.271 83.0142C108.047 83.0973 107.638 83.2124 107.031 83.2188C105.522 83.2507 104.161 82.3878 104.167 80.6044V74.8068H102.729V73.2727H104.167V70.9205H106.078V73.2727H108.092Z" fill="#3B57FF"/>
<path d="M114.332 83.2891C111.436 83.2891 109.659 81.2947 109.659 78.2457C109.659 75.2287 111.462 73.1449 114.198 73.1449C116.422 73.1449 118.544 74.532 118.544 78.0795V78.7571H111.564C111.615 80.6491 112.715 81.7102 114.351 81.7102C115.438 81.7102 116.269 81.2372 116.614 80.3104L118.423 80.6364C117.988 82.2344 116.473 83.2891 114.332 83.2891ZM111.571 77.3253H116.672C116.665 75.8232 115.694 74.7237 114.211 74.7237C112.657 74.7237 111.647 75.9318 111.571 77.3253Z" fill="#3B57FF"/>
<path d="M124.34 83.2827C121.956 83.2827 120.237 81.3778 120.237 78.201C120.237 75.0178 121.982 73.1449 124.353 73.1449C126.181 73.1449 126.833 74.2571 127.178 74.8643H127.294V70H129.205V83.0909H127.338V81.5632H127.178C126.833 82.1896 126.13 83.2827 124.34 83.2827ZM124.762 81.6527C126.411 81.6527 127.325 80.2464 127.325 78.1818C127.325 76.13 126.431 74.7685 124.762 74.7685C123.036 74.7685 122.167 76.2322 122.167 78.1818C122.167 80.1506 123.056 81.6527 124.762 81.6527Z" fill="#3B57FF"/>
<path d="M136.85 83.0909V70H138.825V81.3906H144.757V83.0909H136.85Z" fill="#3B57FF"/>
<path d="M149.714 83.3082C147.847 83.3082 146.396 82.2472 146.396 80.3168C146.396 78.0859 148.301 77.6001 150.161 77.3828C151.925 77.1783 152.641 77.1911 152.641 76.4943V76.4496C152.641 75.3374 152.008 74.6918 150.775 74.6918C149.49 74.6918 148.774 75.3629 148.493 76.0597L146.697 75.6506C147.336 73.8608 148.972 73.1449 150.749 73.1449C152.309 73.1449 154.559 73.7138 154.559 76.571V83.0909H152.692V81.7486H152.616C152.251 82.4837 151.337 83.3082 149.714 83.3082ZM150.129 81.7741C151.721 81.7741 152.648 80.7131 152.648 79.5497V78.2841C152.373 78.5589 150.903 78.7251 150.282 78.8082C149.177 78.9553 148.269 79.3196 148.269 80.3423C148.269 81.2884 149.049 81.7741 150.129 81.7741Z" fill="#3B57FF"/>
<path d="M157.961 86.7727C157.386 86.7727 156.887 86.6641 156.657 86.5618L157.117 84.9957C158.165 85.2834 158.849 85.1747 159.335 83.8707L159.572 83.2188L155.979 73.2727H158.025L160.511 80.892H160.614L163.1 73.2727H165.152L161.106 84.4013C160.537 85.9482 159.54 86.7727 157.961 86.7727Z" fill="#3B57FF"/>
<path d="M170.732 83.2891C167.964 83.2891 166.156 81.2628 166.156 78.2266C166.156 75.1712 167.964 73.1449 170.732 73.1449C173.5 73.1449 175.309 75.1712 175.309 78.2266C175.309 81.2628 173.5 83.2891 170.732 83.2891ZM170.739 81.6847C172.535 81.6847 173.379 80.1058 173.379 78.2202C173.379 76.3409 172.535 74.7429 170.739 74.7429C168.93 74.7429 168.086 76.3409 168.086 78.2202C168.086 80.1058 168.93 81.6847 170.739 81.6847Z" fill="#3B57FF"/>
<path d="M183.662 79.0192V73.2727H185.579V83.0909H183.7V81.3906H183.598C183.144 82.4389 182.14 83.2188 180.664 83.2188C178.778 83.2188 177.442 81.9531 177.442 79.5178V73.2727H179.354V79.2876C179.354 80.6236 180.172 81.4801 181.354 81.4801C182.428 81.4801 183.668 80.6875 183.662 79.0192Z" fill="#3B57FF"/>
<path d="M192.73 73.2727V74.8068H190.717V80.2081C190.717 81.3139 191.273 81.5185 191.893 81.5185C192.2 81.5185 192.436 81.4609 192.564 81.4354L192.909 83.0142C192.686 83.0973 192.277 83.2124 191.669 83.2188C190.161 83.2507 188.799 82.3878 188.806 80.6044V74.8068H187.368V73.2727H188.806V70.9205H190.717V73.2727H192.73Z" fill="#3B57FF"/>
<path d="M70 106.523V97.0682H71.1449V105.507H75.5398V106.523H70Z" fill="#3B57FF"/>
<path d="M80.0455 106.67C78.125 106.67 76.8324 105.212 76.8324 103.014C76.8324 100.798 78.125 99.3395 80.0455 99.3395C81.9659 99.3395 83.2585 100.798 83.2585 103.014C83.2585 105.212 81.9659 106.67 80.0455 106.67ZM80.0455 105.692C81.5043 105.692 82.169 104.436 82.169 103.014C82.169 101.592 81.5043 100.318 80.0455 100.318C78.5866 100.318 77.9219 101.592 77.9219 103.014C77.9219 104.436 78.5866 105.692 80.0455 105.692Z" fill="#3B57FF"/>
<path d="M84.9216 106.523V99.4318H85.9742V100.503H86.048C86.3066 99.8011 87.0452 99.321 87.8946 99.321C88.0562 99.321 88.3424 99.3302 88.4671 99.3395V100.447C88.3932 100.429 88.0931 100.374 87.8023 100.374C86.7682 100.374 86.0111 101.075 86.0111 102.035V106.523H84.9216Z" fill="#3B57FF"/>
<path d="M92.5157 106.67C90.466 106.67 89.2103 105.212 89.2103 103.033C89.2103 100.854 90.4845 99.3395 92.4049 99.3395C93.8822 99.3395 95.4518 100.244 95.4518 102.885V103.347H90.3044C90.3552 104.865 91.237 105.692 92.5157 105.692C93.3698 105.692 94.0115 105.322 94.2884 104.584L95.341 104.879C95.0086 105.95 93.9561 106.67 92.5157 106.67ZM90.3044 102.405H94.3438C94.3438 101.205 93.5867 100.318 92.4049 100.318C91.1585 100.318 90.3783 101.301 90.3044 102.405Z" fill="#3B57FF"/>
<path d="M97.1091 106.523V99.4318H98.1617V100.54H98.254C98.5495 99.7826 99.2327 99.3395 100.156 99.3395C101.089 99.3395 101.707 99.7826 102.058 100.54H102.132C102.497 99.8057 103.24 99.3395 104.255 99.3395C105.52 99.3395 106.416 100.11 106.416 101.777V106.523H105.326V101.777C105.326 100.729 104.662 100.318 103.886 100.318C102.889 100.318 102.316 100.992 102.316 101.906V106.523H101.209V101.666C101.209 100.858 100.631 100.318 99.8051 100.318C98.9557 100.318 98.1986 101.052 98.1986 102.091V106.523H97.1091Z" fill="#3B57FF"/>
<path d="M112.064 106.523V99.4318H113.154V106.523H112.064ZM112.618 98.25C112.193 98.25 111.843 97.9176 111.843 97.5113C111.843 97.1051 112.193 96.7727 112.618 96.7727C113.043 96.7727 113.394 97.1051 113.394 97.5113C113.394 97.9176 113.043 98.25 112.618 98.25Z" fill="#3B57FF"/>
<path d="M115.149 109.182V99.4318H116.202V100.558H116.331C116.571 100.189 116.996 99.3395 118.381 99.3395C120.172 99.3395 121.409 100.761 121.409 102.996C121.409 105.249 120.172 106.67 118.399 106.67C117.033 106.67 116.571 105.821 116.331 105.433H116.239V109.182H115.149ZM116.22 102.977C116.22 104.584 116.94 105.692 118.251 105.692C119.618 105.692 120.32 104.491 120.32 102.977C120.32 101.482 119.636 100.318 118.251 100.318C116.922 100.318 116.22 101.389 116.22 102.977Z" fill="#3B57FF"/>
<path d="M128.094 101.02L127.115 101.297C126.926 100.808 126.533 100.281 125.582 100.281C124.714 100.281 124.068 100.724 124.068 101.334C124.068 101.879 124.447 102.16 125.287 102.368L126.339 102.626C127.604 102.936 128.223 103.559 128.223 104.547C128.223 105.77 127.101 106.67 125.453 106.67C124.004 106.67 123.011 106.029 122.757 104.824L123.791 104.565C123.985 105.327 124.544 105.71 125.435 105.71C126.45 105.71 127.097 105.212 127.097 104.602C127.097 104.113 126.76 103.771 126.044 103.605L124.862 103.328C123.56 103.023 122.979 102.368 122.979 101.389C122.979 100.189 124.087 99.3395 125.582 99.3395C126.986 99.3395 127.752 100.013 128.094 101.02Z" fill="#3B57FF"/>
<path d="M134.332 103.624V99.4318H135.421V106.523H134.332V105.322H134.258C133.926 106.043 133.224 106.615 132.153 106.615C130.823 106.615 129.863 105.747 129.863 103.937V99.4318H130.953V103.864C130.953 104.898 131.599 105.562 132.504 105.562C133.316 105.562 134.332 104.953 134.332 103.624Z" fill="#3B57FF"/>
<path d="M137.417 106.523V99.4318H138.469V100.54H138.562C138.857 99.7826 139.54 99.3395 140.464 99.3395C141.396 99.3395 142.015 99.7826 142.366 100.54H142.439C142.804 99.8057 143.547 99.3395 144.563 99.3395C145.828 99.3395 146.724 100.11 146.724 101.777V106.523H145.634V101.777C145.634 100.729 144.969 100.318 144.194 100.318C143.197 100.318 142.624 100.992 142.624 101.906V106.523H141.516V101.666C141.516 100.858 140.939 100.318 140.113 100.318C139.263 100.318 138.506 101.052 138.506 102.091V106.523H137.417Z" fill="#3B57FF"/>
<path d="M155.049 106.67C153.277 106.67 152.039 105.249 152.039 102.996C152.039 100.761 153.277 99.3395 155.068 99.3395C156.453 99.3395 156.877 100.189 157.118 100.558H157.21V97.0682H158.299V106.523H157.247V105.433H157.118C156.877 105.821 156.416 106.67 155.049 106.67ZM155.197 105.692C156.508 105.692 157.228 104.584 157.228 102.977C157.228 101.389 156.527 100.318 155.197 100.318C153.812 100.318 153.129 101.482 153.129 102.977C153.129 104.491 153.831 105.692 155.197 105.692Z" fill="#3B57FF"/>
<path d="M163.327 106.67C161.406 106.67 160.114 105.212 160.114 103.014C160.114 100.798 161.406 99.3395 163.327 99.3395C165.247 99.3395 166.54 100.798 166.54 103.014C166.54 105.212 165.247 106.67 163.327 106.67ZM163.327 105.692C164.786 105.692 165.45 104.436 165.45 103.014C165.45 101.592 164.786 100.318 163.327 100.318C161.868 100.318 161.203 101.592 161.203 103.014C161.203 104.436 161.868 105.692 163.327 105.692Z" fill="#3B57FF"/>
<path d="M169.292 97.0682V106.523H168.203V97.0682H169.292Z" fill="#3B57FF"/>
<path d="M174.169 106.67C172.248 106.67 170.955 105.212 170.955 103.014C170.955 100.798 172.248 99.3395 174.169 99.3395C176.089 99.3395 177.382 100.798 177.382 103.014C177.382 105.212 176.089 106.67 174.169 106.67ZM174.169 105.692C175.627 105.692 176.292 104.436 176.292 103.014C176.292 101.592 175.627 100.318 174.169 100.318C172.71 100.318 172.045 101.592 172.045 103.014C172.045 104.436 172.71 105.692 174.169 105.692Z" fill="#3B57FF"/>
<path d="M179.045 106.523V99.4318H180.097V100.503H180.171C180.43 99.8011 181.168 99.321 182.018 99.321C182.179 99.321 182.465 99.3302 182.59 99.3395V100.447C182.516 100.429 182.216 100.374 181.925 100.374C180.891 100.374 180.134 101.075 180.134 102.035V106.523H179.045Z" fill="#3B57FF"/>
<path d="M192.561 101.02L191.582 101.297C191.393 100.808 191 100.281 190.049 100.281C189.181 100.281 188.535 100.724 188.535 101.334C188.535 101.879 188.914 102.16 189.754 102.368L190.806 102.626C192.071 102.936 192.69 103.559 192.69 104.547C192.69 105.77 191.568 106.67 189.92 106.67C188.47 106.67 187.478 106.029 187.224 104.824L188.258 104.565C188.452 105.327 189.01 105.71 189.901 105.71C190.917 105.71 191.563 105.212 191.563 104.602C191.563 104.113 191.226 103.771 190.511 103.605L189.329 103.328C188.027 103.023 187.445 102.368 187.445 101.389C187.445 100.189 188.553 99.3395 190.049 99.3395C191.453 99.3395 192.219 100.013 192.561 101.02Z" fill="#3B57FF"/>
<path d="M194.33 106.523V99.4318H195.419V106.523H194.33ZM194.884 98.25C194.459 98.25 194.108 97.9176 194.108 97.5113C194.108 97.1051 194.459 96.7727 194.884 96.7727C195.309 96.7727 195.659 97.1051 195.659 97.5113C195.659 97.9176 195.309 98.25 194.884 98.25Z" fill="#3B57FF"/>
<path d="M200.499 99.4318V100.355H198.984V104.491C198.984 105.415 199.446 105.562 199.926 105.562C200.166 105.562 200.314 105.526 200.406 105.507L200.628 106.486C200.48 106.541 200.222 106.615 199.815 106.615C198.892 106.615 197.895 106.024 197.895 104.787V100.355H196.824V99.4318H197.895V97.7329H198.984V99.4318H200.499Z" fill="#3B57FF"/>
<path d="M207.88 106.689C206.532 106.689 205.461 105.895 205.461 104.51C205.461 102.885 206.897 102.594 208.213 102.423C209.505 102.257 210.041 102.303 210.041 101.777V101.74C210.041 100.831 209.547 100.3 208.545 100.3C207.506 100.3 206.939 100.854 206.699 101.371L205.664 101.001C206.218 99.7088 207.437 99.3395 208.508 99.3395C209.413 99.3395 211.13 99.598 211.13 101.851V106.523H210.041V105.562H209.985C209.764 106.024 209.118 106.689 207.88 106.689ZM208.047 105.71C209.339 105.71 210.041 104.842 210.041 103.956V102.959C209.856 103.18 208.619 103.31 208.157 103.365C207.308 103.476 206.551 103.734 206.551 104.565C206.551 105.322 207.179 105.71 208.047 105.71Z" fill="#3B57FF"/>
<path d="M213.119 106.523V99.4318H214.171V100.54H214.264C214.559 99.7826 215.242 99.3395 216.166 99.3395C217.098 99.3395 217.717 99.7826 218.068 100.54H218.142C218.506 99.8057 219.25 99.3395 220.265 99.3395C221.53 99.3395 222.426 100.11 222.426 101.777V106.523H221.336V101.777C221.336 100.729 220.671 100.318 219.896 100.318C218.899 100.318 218.326 100.992 218.326 101.906V106.523H217.218V101.666C217.218 100.858 216.641 100.318 215.815 100.318C214.965 100.318 214.208 101.052 214.208 102.091V106.523H213.119Z" fill="#3B57FF"/>
<path d="M227.391 106.67C225.341 106.67 224.085 105.212 224.085 103.033C224.085 100.854 225.359 99.3395 227.28 99.3395C228.757 99.3395 230.327 100.244 230.327 102.885V103.347H225.179C225.23 104.865 226.112 105.692 227.391 105.692C228.245 105.692 228.886 105.322 229.163 104.584L230.216 104.879C229.884 105.95 228.831 106.67 227.391 106.67ZM225.179 102.405H229.219C229.219 101.205 228.462 100.318 227.28 100.318C226.033 100.318 225.253 101.301 225.179 102.405Z" fill="#3B57FF"/>
<path d="M235.068 99.4318V100.355H233.554V104.491C233.554 105.415 234.015 105.562 234.495 105.562C234.736 105.562 234.883 105.526 234.976 105.507L235.197 106.486C235.049 106.541 234.791 106.615 234.385 106.615C233.461 106.615 232.464 106.024 232.464 104.787V100.355H231.393V99.4318H232.464V97.7329H233.554V99.4318H235.068Z" fill="#3B57FF"/>
<path d="M237.501 106.597C237.044 106.597 236.67 106.223 236.67 105.766C236.67 105.309 237.044 104.935 237.501 104.935C237.958 104.935 238.332 105.309 238.332 105.766C238.332 106.223 237.958 106.597 237.501 106.597Z" fill="#3B57FF"/>
<path d="M241.081 106.597C240.624 106.597 240.25 106.223 240.25 105.766C240.25 105.309 240.624 104.935 241.081 104.935C241.538 104.935 241.912 105.309 241.912 105.766C241.912 106.223 241.538 106.597 241.081 106.597Z" fill="#3B57FF"/>
<path d="M244.661 106.597C244.204 106.597 243.83 106.223 243.83 105.766C243.83 105.309 244.204 104.935 244.661 104.935C245.118 104.935 245.492 105.309 245.492 105.766C245.492 106.223 245.118 106.597 244.661 106.597Z" fill="#3B57FF"/>
<path d="M78 169.682H151.606V206.303H70.5V177.182C70.5 173.04 73.8579 169.682 78 169.682Z" fill="#F5F6FF"/>
<path d="M96 184.198V183.182H103.091V184.198H100.118V192.636H98.973V184.198H96Z" fill="#3B57FF"/>
<path d="M105.832 192.803C104.484 192.803 103.413 192.009 103.413 190.624C103.413 188.999 104.849 188.708 106.164 188.537C107.457 188.371 107.992 188.417 107.992 187.891V187.854C107.992 186.944 107.498 186.413 106.497 186.413C105.458 186.413 104.89 186.967 104.65 187.484L103.616 187.115C104.17 185.823 105.389 185.453 106.46 185.453C107.365 185.453 109.082 185.712 109.082 187.965V192.636H107.992V191.676H107.937C107.715 192.138 107.069 192.803 105.832 192.803ZM105.998 191.824C107.291 191.824 107.992 190.956 107.992 190.07V189.073C107.808 189.294 106.571 189.423 106.109 189.479C105.259 189.59 104.502 189.848 104.502 190.679C104.502 191.436 105.13 191.824 105.998 191.824Z" fill="#3B57FF"/>
<path d="M111.218 192.636V183.182H112.308V186.672H112.4C112.64 186.303 113.065 185.453 114.45 185.453C116.241 185.453 117.478 186.875 117.478 189.109C117.478 191.362 116.241 192.784 114.468 192.784C113.102 192.784 112.64 191.935 112.4 191.547H112.271V192.636H111.218ZM112.289 189.091C112.289 190.698 113.009 191.805 114.32 191.805C115.687 191.805 116.389 190.605 116.389 189.091C116.389 187.595 115.705 186.432 114.32 186.432C112.991 186.432 112.289 187.503 112.289 189.091Z" fill="#3B57FF"/>
<path d="M126.106 183.182V192.636H124.961V184.382H124.906L122.598 185.915V184.751L124.961 183.182H126.106Z" fill="#3B57FF"/>
<path d="M78 169.682H151.606V206.303H70.5V177.182C70.5 173.04 73.8579 169.682 78 169.682Z" stroke="#95B1FF"/>
<path d="M151.606 169.682H235.353V206.432H151.606V169.682Z" fill="#F5F6FF"/>
<path d="M177.106 184.327V183.311H184.197V184.327H181.224V192.766H180.079V184.327H177.106Z" fill="#3B57FF"/>
<path d="M186.938 192.932C185.59 192.932 184.519 192.138 184.519 190.753C184.519 189.128 185.955 188.837 187.271 188.666C188.563 188.5 189.099 188.546 189.099 188.02V187.983C189.099 187.074 188.605 186.543 187.603 186.543C186.564 186.543 185.997 187.097 185.757 187.614L184.722 187.244C185.276 185.952 186.495 185.582 187.566 185.582C188.471 185.582 190.188 185.841 190.188 188.094V192.766H189.099V191.805H189.044C188.822 192.267 188.176 192.932 186.938 192.932ZM187.105 191.953C188.397 191.953 189.099 191.085 189.099 190.199V189.202C188.914 189.423 187.677 189.553 187.215 189.608C186.366 189.719 185.609 189.977 185.609 190.808C185.609 191.565 186.237 191.953 187.105 191.953Z" fill="#3B57FF"/>
<path d="M192.325 192.766V183.311H193.414V186.801H193.506C193.747 186.432 194.171 185.582 195.556 185.582C197.347 185.582 198.585 187.004 198.585 189.239C198.585 191.492 197.347 192.913 195.575 192.913C194.208 192.913 193.747 192.064 193.506 191.676H193.377V192.766H192.325ZM193.396 189.22C193.396 190.827 194.116 191.935 195.427 191.935C196.793 191.935 197.495 190.734 197.495 189.22C197.495 187.724 196.812 186.561 195.427 186.561C194.097 186.561 193.396 187.632 193.396 189.22Z" fill="#3B57FF"/>
<path d="M203.889 192.766V191.935L207.01 188.519C208.104 187.323 208.616 186.677 208.616 185.804C208.616 184.807 207.831 184.179 206.807 184.179C205.712 184.179 205.015 184.895 205.015 185.97H203.926C203.926 184.308 205.186 183.182 206.843 183.182C208.505 183.182 209.687 184.345 209.687 185.804C209.687 186.852 209.207 187.664 207.582 189.405L205.459 191.676V191.75H209.853V192.766H203.889Z" fill="#3B57FF"/>
<path d="M151.606 169.682H235.353V206.432H151.606V169.682Z" stroke="#95B1FF"/>
<path d="M235.353 169.682H312.025C316.167 169.682 319.525 173.04 319.525 177.182V206.432H235.353V169.682Z" fill="#F5F6FF"/>
<path d="M260.853 184.327V183.311H267.944V184.327H264.971V192.766H263.826V184.327H260.853Z" fill="#3B57FF"/>
<path d="M270.685 192.932C269.337 192.932 268.266 192.138 268.266 190.753C268.266 189.128 269.702 188.837 271.018 188.666C272.31 188.5 272.846 188.546 272.846 188.02V187.983C272.846 187.074 272.352 186.543 271.35 186.543C270.311 186.543 269.743 187.097 269.503 187.614L268.469 187.244C269.023 185.952 270.242 185.582 271.313 185.582C272.218 185.582 273.935 185.841 273.935 188.094V192.766H272.846V191.805H272.79C272.569 192.267 271.922 192.932 270.685 192.932ZM270.851 191.953C272.144 191.953 272.846 191.085 272.846 190.199V189.202C272.661 189.423 271.424 189.553 270.962 189.608C270.113 189.719 269.356 189.977 269.356 190.808C269.356 191.565 269.984 191.953 270.851 191.953Z" fill="#3B57FF"/>
<path d="M276.071 192.766V183.311H277.161V186.801H277.253C277.493 186.432 277.918 185.582 279.303 185.582C281.094 185.582 282.331 187.004 282.331 189.239C282.331 191.492 281.094 192.913 279.321 192.913C277.955 192.913 277.493 192.064 277.253 191.676H277.124V192.766H276.071ZM277.143 189.22C277.143 190.827 277.863 191.935 279.174 191.935C280.54 191.935 281.242 190.734 281.242 189.22C281.242 187.724 280.559 186.561 279.174 186.561C277.844 186.561 277.143 187.632 277.143 189.22Z" fill="#3B57FF"/>
<path d="M290.83 192.895C288.998 192.895 287.687 191.889 287.617 190.402H288.781C288.85 191.316 289.718 191.879 290.812 191.879C292.026 191.879 292.899 191.201 292.899 190.199C292.899 189.156 292.1 188.426 290.664 188.426H289.907V187.411H290.664C291.786 187.411 292.566 186.764 292.566 185.767C292.566 184.812 291.892 184.179 290.849 184.179C289.866 184.179 288.97 184.733 288.928 185.675H287.82C287.876 184.188 289.233 183.182 290.867 183.182C292.617 183.182 293.674 184.373 293.674 185.712C293.674 186.778 293.079 187.563 292.123 187.854V187.928C293.314 188.126 294.025 188.999 294.025 190.199C294.025 191.745 292.663 192.895 290.83 192.895Z" fill="#3B57FF"/>
<path d="M235.353 169.682H312.025C316.167 169.682 319.525 173.04 319.525 177.182V206.432H235.353V169.682Z" stroke="#95B1FF"/>
<path d="M70.5 205.432H368C372.142 205.432 375.5 208.79 375.5 212.932V263.341C375.5 267.483 372.142 270.841 368 270.841H78C73.8579 270.841 70.5 267.483 70.5 263.341V205.432Z" fill="#F5F6FF"/>
<path d="M135.254 241.682V232.227H136.399V240.666H140.794V241.682H135.254Z" fill="#4767FE"/>
<path d="M145.3 241.83C143.379 241.83 142.087 240.371 142.087 238.173C142.087 235.957 143.379 234.499 145.3 234.499C147.22 234.499 148.513 235.957 148.513 238.173C148.513 240.371 147.22 241.83 145.3 241.83ZM145.3 240.851C146.758 240.851 147.423 239.595 147.423 238.173C147.423 236.751 146.758 235.477 145.3 235.477C143.841 235.477 143.176 236.751 143.176 238.173C143.176 239.595 143.841 240.851 145.3 240.851Z" fill="#4767FE"/>
<path d="M150.176 241.682V234.591H151.228V235.662H151.302C151.561 234.96 152.299 234.48 153.149 234.48C153.31 234.48 153.597 234.489 153.721 234.499V235.607C153.647 235.588 153.347 235.533 153.056 235.533C152.022 235.533 151.265 236.234 151.265 237.195V241.682H150.176Z" fill="#4767FE"/>
<path d="M157.77 241.83C155.72 241.83 154.464 240.371 154.464 238.192C154.464 236.013 155.739 234.499 157.659 234.499C159.136 234.499 160.706 235.403 160.706 238.044V238.506H155.559C155.609 240.025 156.491 240.851 157.77 240.851C158.624 240.851 159.266 240.482 159.543 239.743L160.595 240.038C160.263 241.109 159.21 241.83 157.77 241.83ZM155.559 237.564H159.598C159.598 236.364 158.841 235.477 157.659 235.477C156.413 235.477 155.632 236.461 155.559 237.564Z" fill="#4767FE"/>
<path d="M162.363 241.682V234.591H163.416V235.699H163.508C163.804 234.942 164.487 234.499 165.41 234.499C166.343 234.499 166.961 234.942 167.312 235.699H167.386C167.751 234.965 168.494 234.499 169.51 234.499C170.774 234.499 171.67 235.27 171.67 236.936V241.682H170.581V236.936C170.581 235.888 169.916 235.477 169.14 235.477C168.143 235.477 167.571 236.151 167.571 237.065V241.682H166.463V236.825C166.463 236.017 165.886 235.477 165.059 235.477C164.21 235.477 163.453 236.211 163.453 237.25V241.682H162.363Z" fill="#4767FE"/>
<path d="M177.318 241.682V234.591H178.408V241.682H177.318ZM177.872 233.409C177.448 233.409 177.097 233.077 177.097 232.671C177.097 232.264 177.448 231.932 177.872 231.932C178.297 231.932 178.648 232.264 178.648 232.671C178.648 233.077 178.297 233.409 177.872 233.409Z" fill="#4767FE"/>
<path d="M180.403 244.341V234.591H181.456V235.717H181.585C181.825 235.348 182.25 234.499 183.635 234.499C185.426 234.499 186.663 235.921 186.663 238.155C186.663 240.408 185.426 241.83 183.653 241.83C182.287 241.83 181.825 240.98 181.585 240.592H181.493V244.341H180.403ZM181.474 238.136C181.474 239.743 182.194 240.851 183.506 240.851C184.872 240.851 185.574 239.651 185.574 238.136C185.574 236.641 184.891 235.477 183.506 235.477C182.176 235.477 181.474 236.548 181.474 238.136Z" fill="#4767FE"/>
<path d="M193.348 236.179L192.369 236.456C192.18 235.967 191.788 235.44 190.837 235.44C189.969 235.44 189.322 235.884 189.322 236.493C189.322 237.038 189.701 237.319 190.541 237.527L191.594 237.786C192.859 238.095 193.477 238.718 193.477 239.706C193.477 240.929 192.355 241.83 190.707 241.83C189.258 241.83 188.265 241.188 188.011 239.983L189.045 239.724C189.239 240.486 189.798 240.869 190.689 240.869C191.704 240.869 192.351 240.371 192.351 239.761C192.351 239.272 192.014 238.93 191.298 238.764L190.116 238.487C188.815 238.183 188.233 237.527 188.233 236.548C188.233 235.348 189.341 234.499 190.837 234.499C192.24 234.499 193.006 235.173 193.348 236.179Z" fill="#4767FE"/>
<path d="M199.586 238.783V234.591H200.675V241.682H199.586V240.482H199.512C199.18 241.202 198.478 241.774 197.407 241.774C196.077 241.774 195.117 240.906 195.117 239.097V234.591H196.207V239.023C196.207 240.057 196.853 240.722 197.758 240.722C198.57 240.722 199.586 240.112 199.586 238.783Z" fill="#4767FE"/>
<path d="M202.671 241.682V234.591H203.723V235.699H203.816C204.111 234.942 204.794 234.499 205.718 234.499C206.65 234.499 207.269 234.942 207.62 235.699H207.694C208.058 234.965 208.802 234.499 209.817 234.499C211.082 234.499 211.978 235.27 211.978 236.936V241.682H210.888V236.936C210.888 235.888 210.223 235.477 209.448 235.477C208.451 235.477 207.878 236.151 207.878 237.065V241.682H206.77V236.825C206.77 236.017 206.193 235.477 205.367 235.477C204.517 235.477 203.76 236.211 203.76 237.25V241.682H202.671Z" fill="#4767FE"/>
<path d="M220.304 241.83C218.531 241.83 217.294 240.408 217.294 238.155C217.294 235.921 218.531 234.499 220.322 234.499C221.707 234.499 222.132 235.348 222.372 235.717H222.464V232.227H223.554V241.682H222.501V240.592H222.372C222.132 240.98 221.67 241.83 220.304 241.83ZM220.451 240.851C221.762 240.851 222.482 239.743 222.482 238.136C222.482 236.548 221.781 235.477 220.451 235.477C219.066 235.477 218.383 236.641 218.383 238.136C218.383 239.651 219.085 240.851 220.451 240.851Z" fill="#4767FE"/>
<path d="M228.581 241.83C226.66 241.83 225.368 240.371 225.368 238.173C225.368 235.957 226.66 234.499 228.581 234.499C230.501 234.499 231.794 235.957 231.794 238.173C231.794 240.371 230.501 241.83 228.581 241.83ZM228.581 240.851C230.04 240.851 230.704 239.595 230.704 238.173C230.704 236.751 230.04 235.477 228.581 235.477C227.122 235.477 226.457 236.751 226.457 238.173C226.457 239.595 227.122 240.851 228.581 240.851Z" fill="#4767FE"/>
<path d="M234.547 232.227V241.682H233.457V232.227H234.547Z" fill="#4767FE"/>
<path d="M239.423 241.83C237.502 241.83 236.21 240.371 236.21 238.173C236.21 235.957 237.502 234.499 239.423 234.499C241.343 234.499 242.636 235.957 242.636 238.173C242.636 240.371 241.343 241.83 239.423 241.83ZM239.423 240.851C240.881 240.851 241.546 239.595 241.546 238.173C241.546 236.751 240.881 235.477 239.423 235.477C237.964 235.477 237.299 236.751 237.299 238.173C237.299 239.595 237.964 240.851 239.423 240.851Z" fill="#4767FE"/>
<path d="M244.299 241.682V234.591H245.351V235.662H245.425C245.684 234.96 246.422 234.48 247.272 234.48C247.433 234.48 247.72 234.489 247.844 234.499V235.607C247.77 235.588 247.47 235.533 247.179 235.533C246.145 235.533 245.388 236.234 245.388 237.195V241.682H244.299Z" fill="#4767FE"/>
<path d="M257.815 236.179L256.836 236.456C256.647 235.967 256.254 235.44 255.303 235.44C254.435 235.44 253.789 235.884 253.789 236.493C253.789 237.038 254.168 237.319 255.008 237.527L256.06 237.786C257.325 238.095 257.944 238.718 257.944 239.706C257.944 240.929 256.822 241.83 255.174 241.83C253.724 241.83 252.732 241.188 252.478 239.983L253.512 239.724C253.706 240.486 254.265 240.869 255.156 240.869C256.171 240.869 256.818 240.371 256.818 239.761C256.818 239.272 256.481 238.93 255.765 238.764L254.583 238.487C253.281 238.183 252.7 237.527 252.7 236.548C252.7 235.348 253.808 234.499 255.303 234.499C256.707 234.499 257.473 235.173 257.815 236.179Z" fill="#4767FE"/>
<path d="M259.584 241.682V234.591H260.673V241.682H259.584ZM260.138 233.409C259.713 233.409 259.362 233.077 259.362 232.671C259.362 232.264 259.713 231.932 260.138 231.932C260.563 231.932 260.914 232.264 260.914 232.671C260.914 233.077 260.563 233.409 260.138 233.409Z" fill="#4767FE"/>
<path d="M265.753 234.591V235.514H264.239V239.651C264.239 240.574 264.7 240.722 265.18 240.722C265.42 240.722 265.568 240.685 265.66 240.666L265.882 241.645C265.734 241.7 265.476 241.774 265.069 241.774C264.146 241.774 263.149 241.183 263.149 239.946V235.514H262.078V234.591H263.149V232.892H264.239V234.591H265.753Z" fill="#4767FE"/>
<path d="M273.134 241.848C271.786 241.848 270.715 241.054 270.715 239.669C270.715 238.044 272.151 237.753 273.467 237.582C274.759 237.416 275.295 237.462 275.295 236.936V236.899C275.295 235.99 274.801 235.459 273.799 235.459C272.761 235.459 272.193 236.013 271.953 236.53L270.919 236.161C271.473 234.868 272.691 234.499 273.762 234.499C274.667 234.499 276.384 234.757 276.384 237.01V241.682H275.295V240.722H275.24C275.018 241.183 274.372 241.848 273.134 241.848ZM273.301 240.869C274.593 240.869 275.295 240.001 275.295 239.115V238.118C275.11 238.34 273.873 238.469 273.411 238.524C272.562 238.635 271.805 238.894 271.805 239.724C271.805 240.482 272.433 240.869 273.301 240.869Z" fill="#4767FE"/>
<path d="M278.373 241.682V234.591H279.426V235.699H279.518C279.813 234.942 280.497 234.499 281.42 234.499C282.352 234.499 282.971 234.942 283.322 235.699H283.396C283.76 234.965 284.504 234.499 285.519 234.499C286.784 234.499 287.68 235.27 287.68 236.936V241.682H286.59V236.936C286.59 235.888 285.926 235.477 285.15 235.477C284.153 235.477 283.58 236.151 283.58 237.065V241.682H282.472V236.825C282.472 236.017 281.895 235.477 281.069 235.477C280.22 235.477 279.463 236.211 279.463 237.25V241.682H278.373Z" fill="#4767FE"/>
<path d="M292.645 241.83C290.595 241.83 289.339 240.371 289.339 238.192C289.339 236.013 290.614 234.499 292.534 234.499C294.011 234.499 295.581 235.403 295.581 238.044V238.506H290.434C290.484 240.025 291.366 240.851 292.645 240.851C293.499 240.851 294.141 240.482 294.418 239.743L295.47 240.038C295.138 241.109 294.085 241.83 292.645 241.83ZM290.434 237.564H294.473C294.473 236.364 293.716 235.477 292.534 235.477C291.288 235.477 290.507 236.461 290.434 237.564Z" fill="#4767FE"/>
<path d="M300.322 234.591V235.514H298.808V239.651C298.808 240.574 299.27 240.722 299.75 240.722C299.99 240.722 300.137 240.685 300.23 240.666L300.451 241.645C300.304 241.7 300.045 241.774 299.639 241.774C298.716 241.774 297.718 241.183 297.718 239.946V235.514H296.647V234.591H297.718V232.892H298.808V234.591H300.322Z" fill="#4767FE"/>
<path d="M302.755 241.756C302.298 241.756 301.924 241.382 301.924 240.925C301.924 240.468 302.298 240.094 302.755 240.094C303.212 240.094 303.586 240.468 303.586 240.925C303.586 241.382 303.212 241.756 302.755 241.756Z" fill="#4767FE"/>
<path d="M306.335 241.756C305.878 241.756 305.504 241.382 305.504 240.925C305.504 240.468 305.878 240.094 306.335 240.094C306.792 240.094 307.166 240.468 307.166 240.925C307.166 241.382 306.792 241.756 306.335 241.756Z" fill="#4767FE"/>
<path d="M309.915 241.756C309.458 241.756 309.084 241.382 309.084 240.925C309.084 240.468 309.458 240.094 309.915 240.094C310.372 240.094 310.746 240.468 310.746 240.925C310.746 241.382 310.372 241.756 309.915 241.756Z" fill="#4767FE"/>
<path d="M70.5 205.432H368C372.142 205.432 375.5 208.79 375.5 212.932V263.341C375.5 267.483 372.142 270.841 368 270.841H78C73.8579 270.841 70.5 267.483 70.5 263.341V205.432Z" stroke="#95B1FF"/>
<rect x="40.5" y="30.5" width="365" height="280.341" rx="7.5" stroke="#4767FE"/>
<path d="M217.667 77C217.667 75.5272 216.473 74.3333 215 74.3333C213.527 74.3333 212.333 75.5272 212.333 77C212.333 78.4727 213.527 79.6666 215 79.6666C216.473 79.6666 217.667 78.4727 217.667 77ZM427 76.5L215 76.5L215 77.5L427 77.5L427 76.5Z" fill="black"/>
<path d="M313.667 188C313.667 189.473 312.473 190.667 311 190.667C309.527 190.667 308.334 189.473 308.334 188C308.334 186.527 309.527 185.333 311 185.333C312.473 185.333 313.667 186.527 313.667 188ZM427 188.5L311 188.5L311 187.5L427 187.5L427 188.5Z" fill="#3C3C3C"/>
<path d="M228.652 188.276C228.5 189.74 227.189 190.805 225.724 190.652C224.259 190.5 223.195 189.189 223.347 187.724C223.5 186.259 224.811 185.195 226.275 185.348C227.74 185.5 228.804 186.811 228.652 188.276ZM255.5 161L255.163 160.631L255.306 160.5L255.5 160.5L255.5 161ZM427 161.5L255.5 161.5L255.5 160.5L427 160.5L427 161.5ZM255.838 161.369L226.337 188.369L225.662 187.631L255.163 160.631L255.838 161.369Z" fill="#3C3C3C"/>
<path d="M142.652 187.775C142.5 189.24 141.189 190.304 139.724 190.152C138.26 190 137.195 188.689 137.348 187.224C137.5 185.759 138.811 184.695 140.276 184.848C141.74 185 142.805 186.311 142.652 187.775ZM194.5 134L194.15 133.643L194.296 133.5L194.5 133.5L194.5 134ZM426 134.5L194.5 134.5L194.5 133.5L426 133.5L426 134.5ZM194.85 134.357L140.35 187.857L139.65 187.143L194.15 133.643L194.85 134.357Z" fill="#3C3C3C"/>
<path d="M451.124 81H444.949V71.9H446.249V79.83H451.124V81Z" fill="black"/>
<path d="M458.282 76.775V79.57C458.282 79.96 458.282 80.545 458.347 81H457.203C457.151 80.753 457.138 80.402 457.125 80.077C456.813 80.649 456.007 81.13 455.006 81.13C453.849 81.13 452.913 80.35 452.913 79.206C452.913 77.789 454.083 77.269 455.214 77.178L457.073 77.022V76.814C457.073 75.943 456.553 75.384 455.708 75.384H455.643C454.889 75.384 454.343 75.8 454.278 76.411H453.043C453.147 75.228 454.174 74.37 455.669 74.37C457.333 74.37 458.282 75.358 458.282 76.775ZM455.214 80.116H455.305C456.15 80.116 457.073 79.427 457.073 78.517V77.958L455.409 78.101C454.72 78.153 454.135 78.504 454.135 79.128C454.135 79.7 454.59 80.116 455.214 80.116Z" fill="black"/>
<path d="M465.492 74.5H466.844L464.127 80.61V81.975C464.127 82.911 463.646 83.366 462.684 83.366H460.526V82.313H462.32C462.801 82.313 462.931 82.183 462.931 81.702V80.662L460.149 74.5H461.527L463.516 79.154L465.492 74.5Z" fill="black"/>
<path d="M471.285 81.13C469.465 81.13 468.152 79.739 468.152 77.75C468.152 75.761 469.465 74.37 471.285 74.37C473.105 74.37 474.418 75.761 474.418 77.75C474.418 79.739 473.105 81.13 471.285 81.13ZM471.22 80.116H471.35C472.39 80.116 473.17 79.232 473.17 77.75C473.17 76.268 472.39 75.384 471.35 75.384H471.22C470.18 75.384 469.4 76.268 469.4 77.75C469.4 79.232 470.18 80.116 471.22 80.116Z" fill="black"/>
<path d="M480.562 78.062V74.5H481.797V81H480.562V79.908C480.198 80.662 479.47 81.13 478.521 81.13C477.039 81.13 476.298 80.129 476.298 78.725V74.5H477.533V78.504C477.533 79.557 477.975 80.116 478.82 80.116H478.937C479.782 80.116 480.562 79.284 480.562 78.062Z" fill="black"/>
<path d="M489.787 81H487.33C486.368 81 485.887 80.558 485.887 79.596V75.514H483.781V74.5H485.887V72.394H487.122V74.5H489.501V75.514H487.122V79.349C487.122 79.83 487.252 79.96 487.733 79.96H489.787V81Z" fill="black"/>
<path d="M502.711 81H501.476V75.514H499.292V74.5H501.476V73.304C501.476 72.342 501.957 71.9 502.919 71.9H505.506V72.927H503.322C502.841 72.927 502.711 73.057 502.711 73.538V74.5H505.181V75.514H502.711V81Z" fill="black"/>
<path d="M509.505 81H508.27V74.5H509.466V75.722C509.687 74.968 510.285 74.435 511.559 74.435H512.963V75.54H511.494C510.168 75.54 509.505 76.385 509.505 77.789V81Z" fill="black"/>
<path d="M518.054 81.13C516.234 81.13 514.921 79.739 514.921 77.75C514.921 75.761 516.234 74.37 518.054 74.37C519.874 74.37 521.187 75.761 521.187 77.75C521.187 79.739 519.874 81.13 518.054 81.13ZM517.989 80.116H518.119C519.159 80.116 519.939 79.232 519.939 77.75C519.939 76.268 519.159 75.384 518.119 75.384H517.989C516.949 75.384 516.169 76.268 516.169 77.75C516.169 79.232 516.949 80.116 517.989 80.116Z" fill="black"/>
<path d="M527.604 74.37C528.397 74.37 529.021 74.955 529.021 76.099V81H527.877V76.385C527.877 75.813 527.734 75.41 527.318 75.41H527.292C526.746 75.41 526.46 76.06 526.46 76.814V81H525.303V76.385C525.303 75.813 525.16 75.41 524.744 75.41H524.731C524.172 75.41 523.886 76.06 523.886 76.814V81H522.729V74.5H523.86V75.15C524.081 74.747 524.471 74.37 525.082 74.37C525.602 74.37 526.031 74.63 526.265 75.137C526.538 74.721 526.954 74.37 527.604 74.37Z" fill="black"/>
<path d="M543.077 76.593H543.142C544.039 76.593 544.403 77.022 544.403 77.841V81H543.103V78.049C543.103 77.542 542.908 77.347 542.401 77.347H539.879V81H538.579V71.9H541.738C543.324 71.9 544.533 72.927 544.533 74.344C544.533 75.449 544 76.229 543.077 76.593ZM539.879 76.177H541.439C542.479 76.177 543.233 75.579 543.233 74.578C543.233 73.603 542.583 73.07 541.439 73.07H539.879V76.177Z" fill="black"/>
<path d="M552.12 77.464C552.12 77.646 552.107 77.841 552.107 78.036H547.557C547.583 79.362 548.363 80.116 549.338 80.116H549.416C550.131 80.116 550.677 79.726 550.872 79.05H552.094C551.795 80.337 550.794 81.13 549.338 81.13C547.713 81.13 546.348 79.934 546.348 77.737C546.348 75.618 547.648 74.37 549.351 74.37C551.106 74.37 552.12 75.709 552.12 77.464ZM549.364 75.384H549.26C548.506 75.384 547.713 75.865 547.57 77.061H550.911C550.872 76.164 550.326 75.384 549.364 75.384Z" fill="black"/>
<path d="M558.784 74.37C559.577 74.37 560.201 74.955 560.201 76.099V81H559.057V76.385C559.057 75.813 558.914 75.41 558.498 75.41H558.472C557.926 75.41 557.64 76.06 557.64 76.814V81H556.483V76.385C556.483 75.813 556.34 75.41 555.924 75.41H555.911C555.352 75.41 555.066 76.06 555.066 76.814V81H553.909V74.5H555.04V75.15C555.261 74.747 555.651 74.37 556.262 74.37C556.782 74.37 557.211 74.63 557.445 75.137C557.718 74.721 558.134 74.37 558.784 74.37Z" fill="black"/>
<path d="M564.824 81.13C563.004 81.13 561.691 79.739 561.691 77.75C561.691 75.761 563.004 74.37 564.824 74.37C566.644 74.37 567.957 75.761 567.957 77.75C567.957 79.739 566.644 81.13 564.824 81.13ZM564.759 80.116H564.889C565.929 80.116 566.709 79.232 566.709 77.75C566.709 76.268 565.929 75.384 564.889 75.384H564.759C563.719 75.384 562.939 76.268 562.939 77.75C562.939 79.232 563.719 80.116 564.759 80.116Z" fill="black"/>
<path d="M575.531 81H573.074C572.112 81 571.631 80.558 571.631 79.596V75.514H569.525V74.5H571.631V72.394H572.866V74.5H575.245V75.514H572.866V79.349C572.866 79.83 572.996 79.96 573.477 79.96H575.531V81Z" fill="black"/>
<path d="M583.3 77.464C583.3 77.646 583.287 77.841 583.287 78.036H578.737C578.763 79.362 579.543 80.116 580.518 80.116H580.596C581.311 80.116 581.857 79.726 582.052 79.05H583.274C582.975 80.337 581.974 81.13 580.518 81.13C578.893 81.13 577.528 79.934 577.528 77.737C577.528 75.618 578.828 74.37 580.531 74.37C582.286 74.37 583.3 75.709 583.3 77.464ZM580.544 75.384H580.44C579.686 75.384 578.893 75.865 578.75 77.061H582.091C582.052 76.164 581.506 75.384 580.544 75.384Z" fill="black"/>
<path d="M596.003 77.165L597.55 71.9H599.136V81H597.927V74.097L596.627 78.517H595.379L594.079 74.097V81H592.883V71.9H594.456L596.003 77.165Z" fill="black"/>
<path d="M603.798 81.13C601.978 81.13 600.665 79.739 600.665 77.75C600.665 75.761 601.978 74.37 603.798 74.37C605.618 74.37 606.931 75.761 606.931 77.75C606.931 79.739 605.618 81.13 603.798 81.13ZM603.733 80.116H603.863C604.903 80.116 605.683 79.232 605.683 77.75C605.683 76.268 604.903 75.384 603.863 75.384H603.733C602.693 75.384 601.913 76.268 601.913 77.75C601.913 79.232 602.693 80.116 603.733 80.116Z" fill="black"/>
<path d="M613.192 71.9H614.427V81H613.192V80.051C612.867 80.649 612.035 81.13 611.164 81.13C609.383 81.13 608.265 79.674 608.265 77.75C608.265 75.826 609.383 74.37 611.164 74.37C612.035 74.37 612.867 74.851 613.192 75.449V71.9ZM611.385 75.384H611.307C610.163 75.384 609.513 76.424 609.513 77.75C609.513 79.076 610.163 80.116 611.307 80.116H611.385C612.503 80.116 613.192 79.076 613.192 77.75C613.192 76.424 612.503 75.384 611.385 75.384Z" fill="black"/>
<path d="M620.87 78.062V74.5H622.105V81H620.87V79.908C620.506 80.662 619.778 81.13 618.829 81.13C617.347 81.13 616.606 80.129 616.606 78.725V74.5H617.841V78.504C617.841 79.557 618.283 80.116 619.128 80.116H619.245C620.09 80.116 620.87 79.284 620.87 78.062Z" fill="black"/>
<path d="M627.885 79.986H630.186V81H624.284V79.986H626.65V72.914H624.622V71.9H627.885V79.986Z" fill="black"/>
<path d="M637.864 77.464C637.864 77.646 637.851 77.841 637.851 78.036H633.301C633.327 79.362 634.107 80.116 635.082 80.116H635.16C635.875 80.116 636.421 79.726 636.616 79.05H637.838C637.539 80.337 636.538 81.13 635.082 81.13C633.457 81.13 632.092 79.934 632.092 77.737C632.092 75.618 633.392 74.37 635.095 74.37C636.85 74.37 637.864 75.709 637.864 77.464ZM635.108 75.384H635.004C634.25 75.384 633.457 75.865 633.314 77.061H636.655C636.616 76.164 636.07 75.384 635.108 75.384Z" fill="black"/>
<path d="M650.529 81.13C648.709 81.13 647.539 80.194 647.448 78.595H648.722C648.852 79.453 649.476 79.986 650.464 79.986H650.594C651.673 79.986 652.375 79.362 652.375 78.478C652.375 77.555 651.608 77.035 650.568 77.035H649.97V75.878H650.607C651.647 75.878 652.323 75.254 652.323 74.396C652.323 73.499 651.595 72.914 650.633 72.914H650.503C649.632 72.914 648.969 73.486 648.891 74.331H647.617C647.656 72.849 648.891 71.77 650.568 71.77C652.349 71.77 653.597 72.784 653.597 74.279C653.597 75.306 652.947 76.125 652.05 76.437C652.947 76.697 653.662 77.464 653.662 78.556C653.662 80.246 652.245 81.13 650.529 81.13Z" fill="black"/>
<path d="M449.538 133.593H449.603C450.5 133.593 450.864 134.022 450.864 134.841V138H449.564V135.049C449.564 134.542 449.369 134.347 448.862 134.347H446.34V138H445.04V128.9H448.199C449.785 128.9 450.994 129.927 450.994 131.344C450.994 132.449 450.461 133.229 449.538 133.593ZM446.34 133.177H447.9C448.94 133.177 449.694 132.579 449.694 131.578C449.694 130.603 449.044 130.07 447.9 130.07H446.34V133.177Z" fill="black"/>
<path d="M458.581 134.464C458.581 134.646 458.568 134.841 458.568 135.036H454.018C454.044 136.362 454.824 137.116 455.799 137.116H455.877C456.592 137.116 457.138 136.726 457.333 136.05H458.555C458.256 137.337 457.255 138.13 455.799 138.13C454.174 138.13 452.809 136.934 452.809 134.737C452.809 132.618 454.109 131.37 455.812 131.37C457.567 131.37 458.581 132.709 458.581 134.464ZM455.825 132.384H455.721C454.967 132.384 454.174 132.865 454.031 134.061H457.372C457.333 133.164 456.787 132.384 455.825 132.384Z" fill="black"/>
<path d="M465.245 131.37C466.038 131.37 466.662 131.955 466.662 133.099V138H465.518V133.385C465.518 132.813 465.375 132.41 464.959 132.41H464.933C464.387 132.41 464.101 133.06 464.101 133.814V138H462.944V133.385C462.944 132.813 462.801 132.41 462.385 132.41H462.372C461.813 132.41 461.527 133.06 461.527 133.814V138H460.37V131.5H461.501V132.15C461.722 131.747 462.112 131.37 462.723 131.37C463.243 131.37 463.672 131.63 463.906 132.137C464.179 131.721 464.595 131.37 465.245 131.37Z" fill="black"/>
<path d="M471.285 138.13C469.465 138.13 468.152 136.739 468.152 134.75C468.152 132.761 469.465 131.37 471.285 131.37C473.105 131.37 474.418 132.761 474.418 134.75C474.418 136.739 473.105 138.13 471.285 138.13ZM471.22 137.116H471.35C472.39 137.116 473.17 136.232 473.17 134.75C473.17 133.268 472.39 132.384 471.35 132.384H471.22C470.18 132.384 469.4 133.268 469.4 134.75C469.4 136.232 470.18 137.116 471.22 137.116Z" fill="black"/>
<path d="M481.992 138H479.535C478.573 138 478.092 137.558 478.092 136.596V132.514H475.986V131.5H478.092V129.394H479.327V131.5H481.706V132.514H479.327V136.349C479.327 136.83 479.457 136.96 479.938 136.96H481.992V138Z" fill="black"/>
<path d="M489.761 134.464C489.761 134.646 489.748 134.841 489.748 135.036H485.198C485.224 136.362 486.004 137.116 486.979 137.116H487.057C487.772 137.116 488.318 136.726 488.513 136.05H489.735C489.436 137.337 488.435 138.13 486.979 138.13C485.354 138.13 483.989 136.934 483.989 134.737C483.989 132.618 485.289 131.37 486.992 131.37C488.747 131.37 489.761 132.709 489.761 134.464ZM487.005 132.384H486.901C486.147 132.384 485.354 132.865 485.211 134.061H488.552C488.513 133.164 487.967 132.384 487.005 132.384Z" fill="black"/>
<path d="M502.464 134.165L504.011 128.9H505.597V138H504.388V131.097L503.088 135.517H501.84L500.54 131.097V138H499.344V128.9H500.917L502.464 134.165Z" fill="black"/>
<path d="M510.259 138.13C508.439 138.13 507.126 136.739 507.126 134.75C507.126 132.761 508.439 131.37 510.259 131.37C512.079 131.37 513.392 132.761 513.392 134.75C513.392 136.739 512.079 138.13 510.259 138.13ZM510.194 137.116H510.324C511.364 137.116 512.144 136.232 512.144 134.75C512.144 133.268 511.364 132.384 510.324 132.384H510.194C509.154 132.384 508.374 133.268 508.374 134.75C508.374 136.232 509.154 137.116 510.194 137.116Z" fill="black"/>
<path d="M519.653 128.9H520.888V138H519.653V137.051C519.328 137.649 518.496 138.13 517.625 138.13C515.844 138.13 514.726 136.674 514.726 134.75C514.726 132.826 515.844 131.37 517.625 131.37C518.496 131.37 519.328 131.851 519.653 132.449V128.9ZM517.846 132.384H517.768C516.624 132.384 515.974 133.424 515.974 134.75C515.974 136.076 516.624 137.116 517.768 137.116H517.846C518.964 137.116 519.653 136.076 519.653 134.75C519.653 133.424 518.964 132.384 517.846 132.384Z" fill="black"/>
<path d="M527.331 135.062V131.5H528.566V138H527.331V136.908C526.967 137.662 526.239 138.13 525.29 138.13C523.808 138.13 523.067 137.129 523.067 135.725V131.5H524.302V135.504C524.302 136.557 524.744 137.116 525.589 137.116H525.706C526.551 137.116 527.331 136.284 527.331 135.062Z" fill="black"/>
<path d="M534.346 136.986H536.647V138H530.745V136.986H533.111V129.914H531.083V128.9H534.346V136.986Z" fill="black"/>
<path d="M544.325 134.464C544.325 134.646 544.312 134.841 544.312 135.036H539.762C539.788 136.362 540.568 137.116 541.543 137.116H541.621C542.336 137.116 542.882 136.726 543.077 136.05H544.299C544 137.337 542.999 138.13 541.543 138.13C539.918 138.13 538.553 136.934 538.553 134.737C538.553 132.618 539.853 131.37 541.556 131.37C543.311 131.37 544.325 132.709 544.325 134.464ZM541.569 132.384H541.465C540.711 132.384 539.918 132.865 539.775 134.061H543.116C543.077 133.164 542.531 132.384 541.569 132.384Z" fill="black"/>
<path d="M558.043 128.9V136.843H560.578V138H554.169V136.843H556.821V130.733L554.715 132.748V131.175L557.055 128.9H558.043Z" fill="black"/>
<path d="M449.538 160.593H449.603C450.5 160.593 450.864 161.022 450.864 161.841V165H449.564V162.049C449.564 161.542 449.369 161.347 448.862 161.347H446.34V165H445.04V155.9H448.199C449.785 155.9 450.994 156.927 450.994 158.344C450.994 159.449 450.461 160.229 449.538 160.593ZM446.34 160.177H447.9C448.94 160.177 449.694 159.579 449.694 158.578C449.694 157.603 449.044 157.07 447.9 157.07H446.34V160.177Z" fill="black"/>
<path d="M458.581 161.464C458.581 161.646 458.568 161.841 458.568 162.036H454.018C454.044 163.362 454.824 164.116 455.799 164.116H455.877C456.592 164.116 457.138 163.726 457.333 163.05H458.555C458.256 164.337 457.255 165.13 455.799 165.13C454.174 165.13 452.809 163.934 452.809 161.737C452.809 159.618 454.109 158.37 455.812 158.37C457.567 158.37 458.581 159.709 458.581 161.464ZM455.825 159.384H455.721C454.967 159.384 454.174 159.865 454.031 161.061H457.372C457.333 160.164 456.787 159.384 455.825 159.384Z" fill="black"/>
<path d="M465.245 158.37C466.038 158.37 466.662 158.955 466.662 160.099V165H465.518V160.385C465.518 159.813 465.375 159.41 464.959 159.41H464.933C464.387 159.41 464.101 160.06 464.101 160.814V165H462.944V160.385C462.944 159.813 462.801 159.41 462.385 159.41H462.372C461.813 159.41 461.527 160.06 461.527 160.814V165H460.37V158.5H461.501V159.15C461.722 158.747 462.112 158.37 462.723 158.37C463.243 158.37 463.672 158.63 463.906 159.137C464.179 158.721 464.595 158.37 465.245 158.37Z" fill="black"/>
<path d="M471.285 165.13C469.465 165.13 468.152 163.739 468.152 161.75C468.152 159.761 469.465 158.37 471.285 158.37C473.105 158.37 474.418 159.761 474.418 161.75C474.418 163.739 473.105 165.13 471.285 165.13ZM471.22 164.116H471.35C472.39 164.116 473.17 163.232 473.17 161.75C473.17 160.268 472.39 159.384 471.35 159.384H471.22C470.18 159.384 469.4 160.268 469.4 161.75C469.4 163.232 470.18 164.116 471.22 164.116Z" fill="black"/>
<path d="M481.992 165H479.535C478.573 165 478.092 164.558 478.092 163.596V159.514H475.986V158.5H478.092V156.394H479.327V158.5H481.706V159.514H479.327V163.349C479.327 163.83 479.457 163.96 479.938 163.96H481.992V165Z" fill="black"/>
<path d="M489.761 161.464C489.761 161.646 489.748 161.841 489.748 162.036H485.198C485.224 163.362 486.004 164.116 486.979 164.116H487.057C487.772 164.116 488.318 163.726 488.513 163.05H489.735C489.436 164.337 488.435 165.13 486.979 165.13C485.354 165.13 483.989 163.934 483.989 161.737C483.989 159.618 485.289 158.37 486.992 158.37C488.747 158.37 489.761 159.709 489.761 161.464ZM487.005 159.384H486.901C486.147 159.384 485.354 159.865 485.211 161.061H488.552C488.513 160.164 487.967 159.384 487.005 159.384Z" fill="black"/>
<path d="M502.464 161.165L504.011 155.9H505.597V165H504.388V158.097L503.088 162.517H501.84L500.54 158.097V165H499.344V155.9H500.917L502.464 161.165Z" fill="black"/>
<path d="M510.259 165.13C508.439 165.13 507.126 163.739 507.126 161.75C507.126 159.761 508.439 158.37 510.259 158.37C512.079 158.37 513.392 159.761 513.392 161.75C513.392 163.739 512.079 165.13 510.259 165.13ZM510.194 164.116H510.324C511.364 164.116 512.144 163.232 512.144 161.75C512.144 160.268 511.364 159.384 510.324 159.384H510.194C509.154 159.384 508.374 160.268 508.374 161.75C508.374 163.232 509.154 164.116 510.194 164.116Z" fill="black"/>
<path d="M519.653 155.9H520.888V165H519.653V164.051C519.328 164.649 518.496 165.13 517.625 165.13C515.844 165.13 514.726 163.674 514.726 161.75C514.726 159.826 515.844 158.37 517.625 158.37C518.496 158.37 519.328 158.851 519.653 159.449V155.9ZM517.846 159.384H517.768C516.624 159.384 515.974 160.424 515.974 161.75C515.974 163.076 516.624 164.116 517.768 164.116H517.846C518.964 164.116 519.653 163.076 519.653 161.75C519.653 160.424 518.964 159.384 517.846 159.384Z" fill="black"/>
<path d="M527.331 162.062V158.5H528.566V165H527.331V163.908C526.967 164.662 526.239 165.13 525.29 165.13C523.808 165.13 523.067 164.129 523.067 162.725V158.5H524.302V162.504C524.302 163.557 524.744 164.116 525.589 164.116H525.706C526.551 164.116 527.331 163.284 527.331 162.062Z" fill="black"/>
<path d="M534.346 163.986H536.647V165H530.745V163.986H533.111V156.914H531.083V155.9H534.346V163.986Z" fill="black"/>
<path d="M544.325 161.464C544.325 161.646 544.312 161.841 544.312 162.036H539.762C539.788 163.362 540.568 164.116 541.543 164.116H541.621C542.336 164.116 542.882 163.726 543.077 163.05H544.299C544 164.337 542.999 165.13 541.543 165.13C539.918 165.13 538.553 163.934 538.553 161.737C538.553 159.618 539.853 158.37 541.556 158.37C543.311 158.37 544.325 159.709 544.325 161.464ZM541.569 159.384H541.465C540.711 159.384 539.918 159.865 539.775 161.061H543.116C543.077 160.164 542.531 159.384 541.569 159.384Z" fill="black"/>
<path d="M558.485 161.048L555.612 163.843H560.136V165H554.013V163.778L557.406 160.45C558.459 159.423 558.732 159.02 558.732 158.344C558.732 157.551 558.082 156.914 557.185 156.914H557.055C556.067 156.914 555.404 157.577 555.378 158.643H554.104C554.104 156.901 555.352 155.77 557.107 155.77C558.836 155.77 560.006 156.836 560.006 158.305C560.006 159.449 559.447 160.112 558.485 161.048Z" fill="black"/>
<path d="M451.124 192H444.949V182.9H446.249V190.83H451.124V192Z" fill="black"/>
<path d="M455.695 192.13C453.875 192.13 452.562 190.739 452.562 188.75C452.562 186.761 453.875 185.37 455.695 185.37C457.515 185.37 458.828 186.761 458.828 188.75C458.828 190.739 457.515 192.13 455.695 192.13ZM455.63 191.116H455.76C456.8 191.116 457.58 190.232 457.58 188.75C457.58 187.268 456.8 186.384 455.76 186.384H455.63C454.59 186.384 453.81 187.268 453.81 188.75C453.81 190.232 454.59 191.116 455.63 191.116Z" fill="black"/>
<path d="M463.659 192.13C461.813 192.13 460.604 190.739 460.604 188.75C460.604 186.761 461.813 185.37 463.659 185.37C465.193 185.37 466.246 186.189 466.376 187.671H465.141C465.011 186.904 464.504 186.384 463.711 186.384H463.607C462.385 186.384 461.839 187.476 461.839 188.75C461.839 190.024 462.385 191.116 463.607 191.116H463.711C464.504 191.116 464.998 190.57 465.141 189.829H466.376C466.181 191.298 465.193 192.13 463.659 192.13Z" fill="black"/>
<path d="M473.872 187.775V190.57C473.872 190.96 473.872 191.545 473.937 192H472.793C472.741 191.753 472.728 191.402 472.715 191.077C472.403 191.649 471.597 192.13 470.596 192.13C469.439 192.13 468.503 191.35 468.503 190.206C468.503 188.789 469.673 188.269 470.804 188.178L472.663 188.022V187.814C472.663 186.943 472.143 186.384 471.298 186.384H471.233C470.479 186.384 469.933 186.8 469.868 187.411H468.633C468.737 186.228 469.764 185.37 471.259 185.37C472.923 185.37 473.872 186.358 473.872 187.775ZM470.804 191.116H470.895C471.74 191.116 472.663 190.427 472.663 189.517V188.958L470.999 189.101C470.31 189.153 469.725 189.504 469.725 190.128C469.725 190.7 470.18 191.116 470.804 191.116Z" fill="black"/>
<path d="M479.782 190.986H482.083V192H476.181V190.986H478.547V183.914H476.519V182.9H479.782V190.986Z" fill="black"/>
<path d="M496.425 185.37C497.218 185.37 497.842 185.955 497.842 187.099V192H496.698V187.385C496.698 186.813 496.555 186.41 496.139 186.41H496.113C495.567 186.41 495.281 187.06 495.281 187.814V192H494.124V187.385C494.124 186.813 493.981 186.41 493.565 186.41H493.552C492.993 186.41 492.707 187.06 492.707 187.814V192H491.55V185.5H492.681V186.15C492.902 185.747 493.292 185.37 493.903 185.37C494.423 185.37 494.852 185.63 495.086 186.137C495.359 185.721 495.775 185.37 496.425 185.37Z" fill="black"/>
<path d="M502.464 192.13C500.644 192.13 499.331 190.739 499.331 188.75C499.331 186.761 500.644 185.37 502.464 185.37C504.284 185.37 505.597 186.761 505.597 188.75C505.597 190.739 504.284 192.13 502.464 192.13ZM502.399 191.116H502.529C503.569 191.116 504.349 190.232 504.349 188.75C504.349 187.268 503.569 186.384 502.529 186.384H502.399C501.359 186.384 500.579 187.268 500.579 188.75C500.579 190.232 501.359 191.116 502.399 191.116Z" fill="black"/>
<path d="M511.858 182.9H513.093V192H511.858V191.051C511.533 191.649 510.701 192.13 509.83 192.13C508.049 192.13 506.931 190.674 506.931 188.75C506.931 186.826 508.049 185.37 509.83 185.37C510.701 185.37 511.533 185.851 511.858 186.449V182.9ZM510.051 186.384H509.973C508.829 186.384 508.179 187.424 508.179 188.75C508.179 190.076 508.829 191.116 509.973 191.116H510.051C511.169 191.116 511.858 190.076 511.858 188.75C511.858 187.424 511.169 186.384 510.051 186.384Z" fill="black"/>
<path d="M519.536 189.062V185.5H520.771V192H519.536V190.908C519.172 191.662 518.444 192.13 517.495 192.13C516.013 192.13 515.272 191.129 515.272 189.725V185.5H516.507V189.504C516.507 190.557 516.949 191.116 517.794 191.116H517.911C518.756 191.116 519.536 190.284 519.536 189.062Z" fill="black"/>
<path d="M526.551 190.986H528.852V192H522.95V190.986H525.316V183.914H523.288V182.9H526.551V190.986Z" fill="black"/>
<path d="M536.53 188.464C536.53 188.646 536.517 188.841 536.517 189.036H531.967C531.993 190.362 532.773 191.116 533.748 191.116H533.826C534.541 191.116 535.087 190.726 535.282 190.05H536.504C536.205 191.337 535.204 192.13 533.748 192.13C532.123 192.13 530.758 190.934 530.758 188.737C530.758 186.618 532.058 185.37 533.761 185.37C535.516 185.37 536.53 186.709 536.53 188.464ZM533.774 186.384H533.67C532.916 186.384 532.123 186.865 531.98 188.061H535.321C535.282 187.164 534.736 186.384 533.774 186.384Z" fill="black"/>
</svg>
